<svg width="22" height="22" viewBox="0 0 22 22" fill="none" xmlns="http://www.w3.org/2000/svg">
<path d="M21.0617 9.94279L12.057 0.937166C11.776 0.657789 11.3958 0.500977 10.9995 0.500977C10.6033 0.500977 10.2231 0.657789 9.94205 0.937166L0.942048 9.94279C0.662672 10.2238 0.505859 10.604 0.505859 11.0003C0.505859 11.3966 0.662672 11.7767 0.942048 12.0578L9.94674 21.0634C10.2278 21.3428 10.608 21.4996 11.0042 21.4996C11.4005 21.4996 11.7807 21.3428 12.0617 21.0634L21.0664 12.0578C21.3458 11.7767 21.5026 11.3966 21.5026 11.0003C21.5026 10.604 21.3458 10.2238 21.0664 9.94279H21.0617ZM10.9995 20.0003L1.99955 11.0003L10.9995 2.00029L19.9995 11.0003L10.9995 20.0003Z" fill="#D0ACFF"/>
</svg>
