<svg width="29" height="28" viewBox="0 0 29 28" fill="none" xmlns="http://www.w3.org/2000/svg">
<path d="M2.03698 12.4596C9.24134 9.33162 14.0442 7.26927 16.4456 6.27293C23.3102 3.42783 24.7348 2.9337 25.6653 2.91715C25.8699 2.91369 26.3255 2.9641 26.6228 3.20386C26.8699 3.4059 26.9394 3.67913 26.9742 3.87078C27.0051 4.06243 27.0476 4.49922 27.0128 4.84018C26.6422 8.73473 25.0322 18.1856 24.2137 22.5477C23.8701 24.3934 23.1867 25.0123 22.5265 25.0727C21.0902 25.2043 20.0014 24.1275 18.6115 23.2196C16.4379 21.7984 15.2102 20.9141 13.0983 19.5275C10.6582 17.925 12.2411 17.0441 13.631 15.6048C13.994 15.2281 20.318 9.49594 20.4377 8.97603C20.4531 8.91099 20.4687 8.66854 20.3219 8.54078C20.1791 8.41263 19.9666 8.4565 19.8122 8.49113C19.5921 8.54039 16.1212 10.8294 9.38788 15.3578C8.40336 16.0328 7.51152 16.3618 6.70847 16.3445C5.82819 16.3256 4.12953 15.8473 2.86703 15.4386C1.32269 14.9371 0.091012 14.672 0.199116 13.8204C0.253168 13.377 0.867142 12.9233 2.03698 12.4596Z" fill="white"/>
</svg>
