<svg width="29" height="28" viewBox="0 0 29 28" fill="none" xmlns="http://www.w3.org/2000/svg">
<path d="M11.1735 8.69812C11.3742 8.70624 11.5964 8.71574 11.8076 9.18489C11.9515 9.50499 12.1933 10.101 12.3865 10.5771C12.5296 10.9298 12.646 11.2167 12.676 11.2766C12.7465 11.4175 12.7933 11.5824 12.6995 11.7702C12.685 11.799 12.6717 11.8262 12.659 11.8522C12.5891 11.9952 12.5375 12.1007 12.4181 12.2399C12.3703 12.2955 12.321 12.3555 12.2717 12.4154C12.1752 12.5327 12.0789 12.6498 11.9952 12.7334C11.8539 12.8738 11.7068 13.0265 11.8714 13.3083C12.036 13.5902 12.6014 14.5125 13.439 15.2594C14.3405 16.0632 15.1233 16.4026 15.5197 16.5745C15.5966 16.6078 15.659 16.6349 15.7048 16.6578C15.9868 16.7986 16.151 16.775 16.3154 16.587C16.4799 16.3989 17.0192 15.7645 17.2073 15.4825C17.3953 15.2005 17.5831 15.2473 17.8413 15.3414C18.0996 15.4355 19.4846 16.117 19.7666 16.2581C19.8221 16.2858 19.8739 16.3108 19.922 16.3339C20.118 16.4285 20.2504 16.4923 20.3069 16.587C20.3772 16.7048 20.3771 17.2685 20.1424 17.9265C19.9078 18.5845 18.7575 19.2191 18.2407 19.266C18.191 19.2705 18.1415 19.2764 18.0907 19.2823C17.6131 19.3384 17.0105 19.4092 14.8596 18.561C12.2103 17.5163 10.4641 14.9262 10.1058 14.3947C10.0768 14.3516 10.0568 14.322 10.0463 14.3079L10.0429 14.3034C9.89036 14.0994 8.89588 12.7697 8.89588 11.3939C8.89588 10.0969 9.53322 9.41681 9.82671 9.10362C9.84692 9.08204 9.86551 9.06221 9.88214 9.04404C10.1402 8.76203 10.4455 8.69153 10.6334 8.69153L11.1735 8.69812Z" fill="white"/>
<path fill-rule="evenodd" clip-rule="evenodd" d="M3.25452 25.375L4.85445 19.5335C3.86603 17.8198 3.34685 15.8759 3.34923 13.8976C3.35184 7.68181 8.41019 2.625 14.6261 2.625C17.6425 2.62653 20.4738 3.80039 22.6031 5.93123C24.7324 8.06207 25.904 10.8944 25.9029 13.9067C25.9001 20.122 20.841 25.1797 14.626 25.1797H14.6211C12.7339 25.179 10.8796 24.7055 9.23245 23.8074L3.25452 25.375ZM14.6295 4.52931C9.45944 4.52931 5.25492 8.73229 5.25309 13.8984C5.25054 15.6625 5.74731 17.3912 6.68596 18.8848L6.90896 19.2393L5.96193 22.6967L9.5094 21.7665L9.85195 21.9695C11.2906 22.8233 12.9402 23.2748 14.6225 23.2757H14.626C19.7921 23.2757 23.9966 19.0723 23.9986 13.9059C24.0025 12.6745 23.7621 11.4546 23.2913 10.3167C22.8205 9.17886 22.1287 8.1457 21.2559 7.27704C20.388 6.40363 19.3554 5.71105 18.218 5.2394C17.0805 4.76775 15.8608 4.5264 14.6295 4.52931Z" fill="white"/>
</svg>
